# Blender 3.4.1
# www.blender.org
mtllib untitled.mtl
o Cube
v 1.000000 2.015906 -0.171075
v 1.000000 0.015906 -0.171075
v 1.000000 2.015906 0.171075
v 1.000000 0.015906 0.171075
v -1.000000 2.015906 -0.171075
v -1.000000 0.015906 -0.171075
v -1.000000 2.015906 0.171075
v -1.000000 0.015906 0.171075
v 1.000000 8.561064 0.171075
v -1.000000 8.561064 0.171075
v 1.000000 8.561064 -0.171075
v -1.000000 8.561064 -0.171075
v -25.454241 0.015906 -0.171075
v -25.454241 0.015906 0.171075
v -25.454241 2.015906 0.171075
v -25.454241 2.015906 -0.171075
v -25.454241 8.561064 0.171075
v -25.454241 8.561064 -0.171075
v -57.922325 0.015906 -0.171075
v -57.922325 0.015906 0.171075
v -57.922325 2.015906 0.171075
v -57.922325 2.015906 -0.171075
v -57.922325 8.561064 0.171075
v -57.922325 8.561064 -0.171075
v -1.000000 5.100780 -0.171075
v 1.000000 5.100780 -0.171075
v 1.000000 5.100780 0.171075
v -1.000000 5.100780 0.171075
v -25.454241 5.100780 -0.171075
v -25.454241 5.100780 0.171075
v -57.922325 5.100780 -0.171075
v -57.922325 5.100780 0.171075
v -57.922325 8.561064 0.171075
v -57.922325 5.100780 0.171075
v -62.918106 8.561064 0.171075
v -62.918106 8.561064 -0.171075
v -62.918106 5.100780 -0.171075
v -62.918106 5.100780 0.171075
v -66.744438 8.561064 0.171075
v -66.744438 8.561064 -0.171075
v -66.744438 5.100780 -0.171075
v -66.744438 5.100780 0.171075
v -62.918106 5.100780 0.171075
v -62.918106 5.100780 -0.171075
v -66.744438 5.100780 0.171075
v -66.744438 5.100780 -0.171075
v -62.918106 0.146094 0.171075
v -62.918106 0.146094 -0.171075
v -66.744438 0.146094 0.171075
v -66.744438 0.146094 -0.171075
vn -0.0000 -0.0000 -1.0000
vn -0.0000 -0.0000 1.0000
vn -0.0000 -1.0000 -0.0000
vn 1.0000 -0.0000 -0.0000
vn -0.0000 1.0000 -0.0000
vn -1.0000 -0.0000 -0.0000
vt 0.625000 0.500000
vt 0.375000 0.500000
vt 0.625000 0.750000
vt 0.375000 0.750000
vt 0.625000 0.250000
vt 0.375000 0.250000
vt 0.125000 0.500000
vt 0.625000 1.000000
vt 0.375000 1.000000
vt 0.125000 0.750000
vt 0.625000 0.750000
vt 0.875000 0.750000
vt 0.625000 1.000000
vt 0.625000 0.500000
vt 0.875000 0.500000
vt 0.625000 0.250000
vt 0.375000 0.250000
vt 0.125000 0.500000
vt 0.375000 1.000000
vt 0.125000 0.750000
vt 0.625000 1.000000
vt 0.625000 0.250000
vt 0.625000 1.000000
vt 0.875000 0.750000
vt 0.875000 0.500000
vt 0.625000 0.250000
vt 0.375000 0.250000
vt 0.125000 0.500000
vt 0.375000 1.000000
vt 0.375000 0.000000
vt 0.125000 0.750000
vt 0.625000 1.000000
vt 0.625000 0.000000
vt 0.625000 0.250000
vt 0.625000 1.000000
vt 0.875000 0.750000
vt 0.625000 0.250000
vt 0.875000 0.500000
vt 0.625000 0.250000
vt 0.625000 0.500000
vt 0.625000 0.750000
vt 0.625000 1.000000
vt 0.625000 0.250000
vt 0.625000 1.000000
vt 0.625000 0.250000
vt 0.625000 0.000000
vt 0.625000 1.000000
vt 0.625000 1.000000
vt 0.625000 1.000000
vt 0.625000 1.000000
vt 0.875000 0.750000
vt 0.875000 0.500000
vt 0.625000 0.250000
vt 0.625000 0.250000
vt 0.625000 1.000000
vt 0.625000 0.000000
vt 0.625000 1.000000
vt 0.625000 0.000000
vt 0.875000 0.750000
vt 0.875000 0.500000
vt 0.625000 0.250000
vt 0.625000 0.250000
vt 0.625000 1.000000
vt 0.625000 0.000000
vt 0.625000 1.000000
vt 0.625000 0.000000
vt 0.625000 0.250000
vt 0.625000 1.000000
vt 0.625000 0.000000
vt 0.625000 0.250000
vt 0.625000 1.000000
vt 0.625000 0.000000
vt 0.625000 0.250000
vt 0.625000 1.000000
vt 0.625000 0.000000
vt 0.625000 0.250000
s 0
usemtl Material
f 26/40/1 25/39/1 12/16/1 11/14/1
f 4/4/2 3/3/2 7/8/2 8/9/2
f 5/5/1 6/6/1 13/17/1 16/22/1
f 6/7/3 2/2/3 4/4/3 8/10/3
f 2/2/4 1/1/4 3/3/4 4/4/4
f 6/6/1 5/5/1 1/1/1 2/2/1
f 11/14/5 12/15/5 10/12/5 9/11/5
f 28/42/2 27/41/2 9/11/2 10/13/2
f 25/39/1 5/5/1 16/22/1 29/43/1
f 27/41/4 26/40/4 11/14/4 9/11/4
f 14/19/2 15/21/2 21/32/2 20/29/2
f 29/43/1 16/22/1 22/34/1 31/45/1
f 8/9/2 7/8/2 15/21/2 14/19/2
f 10/12/5 12/15/5 18/25/5 17/24/5
f 28/42/2 10/13/2 17/23/2 30/44/2
f 6/7/3 8/10/3 14/20/3 13/18/3
f 20/30/6 21/33/6 22/34/6 19/27/6
f 24/37/1 31/45/1 37/54/1 36/53/1
f 30/44/2 17/23/2 23/35/2 32/47/2
f 17/24/5 18/25/5 24/38/5 23/36/5
f 16/22/1 13/17/1 19/27/1 22/34/1
f 13/18/3 14/20/3 20/31/3 19/28/3
f 15/21/2 30/44/2 32/47/2 21/32/2
f 22/34/6 21/33/6 32/46/6 31/45/6
f 7/8/2 28/42/2 30/44/2 15/21/2
f 18/26/1 29/43/1 31/45/1 24/37/1
f 3/3/4 1/1/4 26/40/4 27/41/4
f 12/16/1 25/39/1 29/43/1 18/26/1
f 7/8/2 3/3/2 27/41/2 28/42/2
f 1/1/1 5/5/1 25/39/1 26/40/1
f 23/35/5 32/47/5 34/49/5 33/48/5
f 38/55/2 35/50/2 39/57/2 42/63/2
f 31/45/3 32/46/3 38/56/3 37/54/3
f 32/47/2 23/35/2 35/50/2 38/55/2
f 23/36/5 24/38/5 36/52/5 35/51/5
f 41/62/6 42/64/6 39/58/6 40/61/6
f 35/51/5 36/52/5 40/60/5 39/59/5
f 38/55/5 42/63/5 45/68/5 43/65/5
f 36/53/1 37/54/1 41/62/1 40/61/1
f 43/65/2 45/68/2 49/74/2 47/71/2
f 42/64/5 41/62/5 46/70/5 45/69/5
f 37/54/5 38/56/5 43/66/5 44/67/5
f 41/62/5 37/54/5 44/67/5 46/70/5
f 48/73/3 47/72/3 49/75/3 50/76/3
f 44/67/4 43/66/4 47/72/4 48/73/4
f 46/70/1 44/67/1 48/73/1 50/76/1
f 45/69/6 46/70/6 50/76/6 49/75/6
